<svg width="1200" height="800" viewBox="0 0 1200 800" fill="none" xmlns="http://www.w3.org/2000/svg">
  <rect width="1200" height="800" rx="40" fill="#E9E2D9"/>
  <rect x="42" y="42" width="1116" height="716" rx="30" fill="#F8F2EB"/>
  <rect x="84" y="114" width="1032" height="566" rx="22" fill="#E3D7C9"/>
  <rect x="84" y="572" width="1032" height="108" fill="#C08F63"/>
  <rect x="340" y="310" width="520" height="196" rx="28" fill="#8F523E"/>
  <rect x="372" y="272" width="456" height="84" rx="26" fill="#A96A53"/>
  <rect x="398" y="348" width="164" height="94" rx="18" fill="#F2E5D4"/>
  <rect x="638" y="348" width="164" height="94" rx="18" fill="#F2E5D4"/>
  <rect x="231" y="312" width="72" height="150" rx="12" fill="#7A5B4F"/>
  <rect x="897" y="312" width="72" height="150" rx="12" fill="#7A5B4F"/>
  <circle cx="267" cy="274" r="34" fill="#F0C98E"/>
  <circle cx="933" cy="274" r="34" fill="#F0C98E"/>
  <rect x="185" y="154" width="218" height="104" rx="18" fill="#C4B19E"/>
  <rect x="797" y="154" width="218" height="164" rx="18" fill="#D8C7B8"/>
  <rect x="843" y="194" width="126" height="88" rx="14" fill="#7E9EA1"/>
  <rect x="526" y="172" width="148" height="30" rx="15" fill="#CDB69E"/>
</svg>
