<svg width="1200" height="800" viewBox="0 0 1200 800" fill="none" xmlns="http://www.w3.org/2000/svg">
  <rect width="1200" height="800" rx="40" fill="#E5E3DE"/>
  <rect x="42" y="42" width="1116" height="716" rx="30" fill="#F8F7F3"/>
  <rect x="82" y="112" width="1036" height="588" rx="22" fill="#E2E0DA"/>
  <rect x="82" y="584" width="1036" height="116" fill="#8A857D"/>
  <rect x="146" y="180" width="908" height="304" rx="24" fill="#F2EEE8"/>
  <rect x="198" y="228" width="176" height="176" rx="18" fill="#C5D3CB"/>
  <rect x="426" y="228" width="176" height="176" rx="18" fill="#D5C2B7"/>
  <rect x="654" y="228" width="176" height="176" rx="18" fill="#C0CAD6"/>
  <rect x="882" y="228" width="120" height="176" rx="18" fill="#D9D5CE"/>
  <rect x="168" y="132" width="48" height="28" rx="14" fill="#2C3340"/>
  <rect x="984" y="132" width="48" height="28" rx="14" fill="#2C3340"/>
  <rect x="258" y="520" width="684" height="28" rx="14" fill="#666059"/>
  <rect x="296" y="548" width="608" height="24" rx="12" fill="#756E67"/>
  <circle cx="192" cy="146" r="12" fill="#A66A45"/>
  <circle cx="1008" cy="146" r="12" fill="#A66A45"/>
</svg>
