<svg width="1200" height="800" viewBox="0 0 1200 800" fill="none" xmlns="http://www.w3.org/2000/svg">
  <rect width="1200" height="800" rx="40" fill="#E7E8DF"/>
  <rect x="42" y="42" width="1116" height="716" rx="30" fill="#F7F7F1"/>
  <rect x="78" y="96" width="1044" height="608" rx="20" fill="#E8E4DA"/>
  <rect x="78" y="588" width="1044" height="116" fill="#B68158"/>
  <rect x="118" y="182" width="418" height="240" rx="24" fill="#D5C6B6"/>
  <rect x="160" y="222" width="190" height="132" rx="18" fill="#3A4657"/>
  <rect x="382" y="246" width="106" height="150" rx="18" fill="#EFE6D8"/>
  <rect x="650" y="154" width="362" height="294" rx="24" fill="#F1EAE0"/>
  <rect x="686" y="200" width="290" height="168" rx="18" fill="#A3B8A8"/>
  <rect x="676" y="470" width="316" height="74" rx="18" fill="#7E573F"/>
  <rect x="150" y="470" width="312" height="74" rx="24" fill="#C77042"/>
  <rect x="214" y="430" width="182" height="48" rx="16" fill="#D99B5C"/>
  <rect x="562" y="190" width="44" height="320" rx="18" fill="#D3B69B"/>
  <circle cx="322" cy="192" r="38" fill="#F0CB91"/>
  <rect x="734" y="92" width="198" height="30" rx="15" fill="#C7C6B7"/>
</svg>
